<svg width="20" height="21" viewBox="0 0 20 21" fill="none" xmlns="http://www.w3.org/2000/svg">
<g clip-path="url(#clip0_22_8237)">
<path d="M10.3025 12.9558C10.3025 11.4158 9.57 10.2775 8.05667 9.85083C9.16083 9.325 9.73667 8.52833 9.73667 7.28917C9.73667 4.84583 7.91 4.25 5.8025 4.25H0V16.5175H5.965C8.20167 16.5175 10.3025 15.4483 10.3025 12.9558ZM2.705 6.34417H5.24333C6.21917 6.34417 7.0975 6.6175 7.0975 7.74583C7.0975 8.7875 6.41417 9.20667 5.4475 9.20667H2.705V6.34417ZM2.70417 14.4342V11.0558H5.6525C6.84333 11.0558 7.59667 11.5508 7.59667 12.8075C7.59667 14.0467 6.6975 14.4342 5.59667 14.4342H2.70417Z" fill="#333333"/>
<path d="M15.6633 16.7498C17.7917 16.7498 19.17 15.7939 19.8333 13.7623H17.6733C17.4408 14.5206 16.4825 14.9214 15.7392 14.9214C14.305 14.9214 13.5517 14.0839 13.5517 12.6606H19.9792C20.1825 9.81227 18.5958 7.38477 15.6625 7.38477C12.9467 7.38477 11.1033 9.41977 11.1033 12.0856C11.1033 14.8523 12.85 16.7498 15.6633 16.7498ZM15.5867 9.2281C16.8158 9.2281 17.4342 9.9481 17.5375 11.1256H13.555C13.6358 9.9581 14.4133 9.2281 15.5867 9.2281Z" fill="#333333"/>
<path d="M13.0558 4.89404H18.0458V6.10238H13.0558V4.89404Z" fill="#333333"/>
</g>
<defs>
<clipPath id="clip0_22_8237">
<rect width="20" height="20" fill="white" transform="translate(0 0.5)"/>
</clipPath>
</defs>
</svg>
