<svg width="20" height="21" viewBox="0 0 20 21" fill="none" xmlns="http://www.w3.org/2000/svg">
<g clip-path="url(#clip0_22_8243)">
<path d="M10 0.5C4.48625 0.5 0 4.98625 0 10.5C0 16.0138 4.48625 20.5 10 20.5C15.5138 20.5 20 16.0138 20 10.5C20 4.98625 15.5138 0.5 10 0.5ZM10 19.25C5.175 19.25 1.25 15.3237 1.25 10.5C1.25 5.675 5.175 1.75 10 1.75C14.8237 1.75 18.75 5.675 18.75 10.5C18.75 15.3237 14.8237 19.25 10 19.25Z" fill="#333333"/>
<path d="M10 3C9.475 3 8.9625 3.055 8.4675 3.1575C9.3775 4.4475 10.2037 5.79 10.9312 7.18125C12.3075 6.54 13.6025 5.7125 14.785 4.725C13.4862 3.6475 11.8187 3 10 3Z" fill="#333333"/>
<path d="M15.6763 5.60742C14.39 6.69117 12.975 7.58992 11.4725 8.29242C11.8013 8.97742 12.1063 9.67117 12.3888 10.3762C14.0488 10.0349 15.7763 10.0037 17.4888 10.2874C17.4388 8.49992 16.7663 6.86992 15.6763 5.60742Z" fill="#333333"/>
<path d="M7.2125 3.54102C4.96125 4.44352 3.25375 6.40352 2.69875 8.80977C5.12625 8.91352 7.52875 8.50852 9.765 7.65477C9.01375 6.22852 8.1625 4.85352 7.2125 3.54102Z" fill="#333333"/>
<path d="M10.325 8.78613C8.16 9.62988 5.8475 10.0899 3.49625 10.0899C3.1725 10.0899 2.8475 10.0699 2.5225 10.0524C2.51375 10.2011 2.5 10.3486 2.5 10.4999C2.5 12.3411 3.16625 14.0261 4.2675 15.3311C6.06875 13.0949 8.49 11.4924 11.17 10.6874C10.9087 10.0449 10.6262 9.41238 10.325 8.78613Z" fill="#333333"/>
<path d="M12.8475 11.5598C13.4438 13.2223 13.9113 14.9311 14.2538 16.6736C15.9438 15.5073 17.1238 13.6661 17.42 11.5386C15.8875 11.2673 14.3388 11.2798 12.8475 11.5598Z" fill="#333333"/>
<path d="M11.62 11.8501C9.1 12.5863 6.82375 14.0988 5.155 16.2201C6.4625 17.3288 8.15125 18.0001 10 18.0001C11.11 18.0001 12.1612 17.7526 13.1087 17.3188C12.765 15.4513 12.265 13.6238 11.62 11.8501Z" fill="#333333"/>
</g>
<defs>
<clipPath id="clip0_22_8243">
<rect width="20" height="20" fill="white" transform="translate(0 0.5)"/>
</clipPath>
</defs>
</svg>
