<svg width="32" height="32" viewBox="0 0 32 32" fill="none" xmlns="http://www.w3.org/2000/svg">
<g clip-path="url(#clip0_22_8294)">
<path d="M16 0C7.178 0 0 7.178 0 16C0 24.822 7.178 32 16 32C24.822 32 32 24.822 32 16C32 7.178 24.822 0 16 0ZM16 30C8.28 30 2 23.718 2 16C2 8.28 8.28 2 16 2C23.718 2 30 8.28 30 16C30 23.718 23.718 30 16 30Z" fill="white"/>
<path d="M16 4C15.16 4 14.34 4.088 13.548 4.252C15.004 6.316 16.326 8.464 17.49 10.69C19.692 9.664 21.764 8.34 23.656 6.76C21.578 5.036 18.91 4 16 4Z" fill="white"/>
<path d="M25.082 8.17212C23.024 9.90612 20.76 11.3441 18.356 12.4681C18.882 13.5641 19.37 14.6741 19.822 15.8021C22.478 15.2561 25.242 15.2061 27.982 15.6601C27.902 12.8001 26.826 10.1921 25.082 8.17212Z" fill="white"/>
<path d="M11.54 4.86597C7.93799 6.30997 5.20599 9.44597 4.31799 13.296C8.20199 13.462 12.046 12.814 15.624 11.448C14.422 9.16597 13.06 6.96597 11.54 4.86597Z" fill="white"/>
<path d="M16.52 13.2581C13.056 14.6081 9.356 15.3441 5.594 15.3441C5.076 15.3441 4.556 15.3121 4.036 15.2841C4.022 15.5221 4 15.7581 4 16.0001C4 18.9461 5.066 21.6421 6.828 23.7301C9.71 20.1521 13.584 17.5881 17.872 16.3001C17.454 15.2721 17.002 14.2601 16.52 13.2581Z" fill="white"/>
<path d="M20.556 17.696C21.51 20.356 22.258 23.09 22.806 25.878C25.51 24.012 27.398 21.066 27.872 17.662C25.42 17.228 22.942 17.248 20.556 17.696Z" fill="white"/>
<path d="M18.592 18.1599C14.56 19.3379 10.918 21.7579 8.24799 25.1519C10.34 26.9259 13.042 27.9999 16 27.9999C17.776 27.9999 19.458 27.6039 20.974 26.9099C20.424 23.9219 19.624 20.9979 18.592 18.1599Z" fill="white"/>
</g>
<defs>
<clipPath id="clip0_22_8294">
<rect width="32" height="32" fill="white"/>
</clipPath>
</defs>
</svg>
